<svg width="323" height="260" viewBox="0 0 323 260" fill="none" xmlns="http://www.w3.org/2000/svg">
<path d="M63.3182 247.824C62.9885 252.653 59.5212 256.606 54.1834 258.888L61.6201 259.01C64.3814 257.324 65.1957 254.237 65.4055 251.164C65.8251 245.018 61.8625 238.463 57.8746 233.891L56.7424 232.711C49.3353 224.929 37.5993 218.492 30.7405 215.598L29.4333 215.805C37.4333 219.305 49.6769 226.385 56.7397 234.365L57.7548 235.647C61.3261 239.86 63.573 244.093 63.3182 247.824Z" fill="white"/>
<path d="M32.01 216.72L31.4993 215.78C28.2477 213.939 23.9353 213.42 19.91 213.42C6.6 213.42 0 221.23 0 228.38C0 233.33 3.63 238.39 10.56 238.39C20.57 238.39 29.48 225.19 33.22 216.61L54.89 168.32H53.68L38.28 202.75L22.33 173.49C20.24 169.64 18.81 168.32 14.19 168.32H5.72L32.01 216.72ZM32.01 216.83C29.26 223.76 21.12 232.78 12.65 232.78C6.05 232.78 3.08 229.15 3.08 225.41C3.08 217.16 13.09 214.52 20.02 214.52C26.18 214.52 30.69 216.39 32.01 216.83Z" fill="white"/>
<path d="M79.7947 167.22C72.6447 167.22 67.3647 169.42 62.5247 172.5V181.3C65.9347 174.59 70.4447 168.32 78.3647 168.32C84.5247 168.32 87.7147 171.95 87.7147 176.13C87.7147 180.75 84.3047 184.49 80.4547 186.47C70.8847 191.42 55.4847 192.3 55.4847 204.51C55.4847 211.33 60.9847 216.61 68.2447 216.61C76.4947 216.61 83.7547 211.77 87.6047 208.69C87.6047 213.42 90.0247 216.61 94.7547 216.61C98.0547 216.61 101.575 215.18 102.895 213.42C100.035 214.19 98.6047 212.76 98.6047 209.02V192.52H97.9447C95.8547 199.45 92.1147 205.72 87.6047 208.69C80.5647 213.53 68.1347 211.44 68.1347 200.88C68.0247 194.17 73.5247 190.65 79.9047 188.01C88.4847 184.38 98.7147 182.51 98.7147 177.01C98.7147 170.74 89.2547 167.22 79.7947 167.22Z" fill="white"/>
<path d="M123.811 169.53H132.611V168.43H123.811V168.32C123.811 161.61 117.761 160.07 113.471 158.64L111.711 158.09V162.05C111.711 168.32 111.491 168.43 106.211 168.43V169.53H108.851C111.711 169.53 111.711 169.53 111.711 172.61V206.16C111.711 213.53 116.221 216.61 121.501 216.61C125.791 216.61 130.521 214.3 133.491 210.67C132.281 211.66 130.301 212.43 128.541 212.43C124.361 212.43 123.811 209.9 123.811 206.6V169.53Z" fill="white"/>
<path d="M182.118 185.59C181.128 172.83 170.568 167.22 160.998 167.22C149.338 167.22 137.018 174.59 137.018 191.86C137.018 207.59 148.788 216.5 160.338 216.5C169.028 216.5 177.498 211.44 180.798 200.66C177.938 205.5 173.208 207.92 168.258 207.92C155.828 207.92 148.678 196.92 148.568 185.59H182.118ZM148.568 184.49C148.898 172.94 154.838 168.32 160.558 168.32C166.168 168.32 170.898 172.5 170.898 178.11C170.898 179.98 170.568 182.4 169.358 184.49H148.568Z" fill="white"/>
<path d="M189.947 207.92C189.947 214.63 195.117 215.51 199.627 215.51H202.047V152.48C202.047 145.77 196.767 145 192.257 145H189.947V207.92Z" fill="white"/>
<path d="M213.37 154.9C213.37 158.42 215.79 160.84 219.31 160.84C222.94 160.84 225.25 158.42 225.25 154.9C225.25 151.27 222.94 148.96 219.31 148.96C215.79 148.96 213.37 151.27 213.37 154.9ZM213.15 207.92C213.15 214.63 218.32 215.51 222.83 215.51H225.25V175.91C225.25 169.2 219.97 168.32 215.46 168.32H213.15V207.92Z" fill="white"/>
<path d="M278.26 185.59C277.27 172.83 266.71 167.22 257.14 167.22C245.48 167.22 233.16 174.59 233.16 191.86C233.16 207.59 244.93 216.5 256.48 216.5C265.17 216.5 273.64 211.44 276.94 200.66C274.08 205.5 269.35 207.92 264.4 207.92C251.97 207.92 244.82 196.92 244.71 185.59H278.26ZM244.71 184.49C245.04 172.94 250.98 168.32 256.7 168.32C262.31 168.32 267.04 172.5 267.04 178.11C267.04 179.98 266.71 182.4 265.5 184.49H244.71Z" fill="white"/>
<path d="M310.179 170.19C313.479 170.19 317.329 171.62 322.389 177.78V170.63C320.519 167.99 317.989 167.22 315.019 167.22C308.419 167.22 303.469 170.63 299.399 173.93L298.189 175.03C297.749 169.09 292.799 168.32 288.399 168.32H286.089V207.92C286.089 214.63 291.259 215.51 295.769 215.51H298.189V176.35L299.619 175.14C303.249 172.06 306.769 170.19 310.179 170.19Z" fill="white"/>
<path d="M174.4 2.03571L156.079 0C141.829 30.5357 188.65 24.4286 164.222 62.4286C191.365 49.5357 154.722 24.4286 174.4 2.03571Z" fill="white"/>
<path d="M219.415 19.0886L204.566 8.16488C176.958 27.4846 220.56 45.6064 180.404 66.301C210.357 68.7069 191.177 28.6421 219.415 19.0886Z" fill="white"/>
<path d="M250.091 58.6306L242.693 41.7459C209.123 44.6729 237.823 82.1679 192.7 80.0121C217.437 97.0721 220.859 52.7848 250.091 58.6306Z" fill="white"/>
<path d="M257.142 105.222L259.178 86.9011C228.642 72.6511 234.749 119.473 196.749 95.0439C209.642 122.187 234.749 85.5439 257.142 105.222Z" fill="white"/>
<path d="M71.2134 84.4163L69.1777 102.738C99.7134 116.988 93.6063 70.1663 131.606 94.5949C118.713 67.452 93.6063 104.095 71.2134 84.4163Z" fill="white"/>
<path d="M89.6234 39.2546L78.6997 54.1036C98.0194 81.7123 116.141 38.1102 136.836 78.266C139.242 48.3131 99.1769 67.4932 89.6234 39.2546Z" fill="white"/>
<path d="M127.808 8.68543L110.924 16.0832C113.851 49.6529 151.346 20.9532 149.19 66.0765C166.25 41.3395 121.963 37.9175 127.808 8.68543Z" fill="white"/>
</svg>
