<svg width="191" height="129" viewBox="0 0 191 129" fill="none" xmlns="http://www.w3.org/2000/svg">
<path d="M105.4 2.03571L87.0788 0C72.8288 30.5357 119.65 24.4286 95.2216 62.4286C122.365 49.5357 85.7217 24.4286 105.4 2.03571Z" fill="#201B21"/>
<path d="M150.415 19.0885L135.566 8.16482C107.958 27.4845 151.56 45.6063 111.404 66.301C141.357 68.7069 122.177 28.642 150.415 19.0885Z" fill="#201B21"/>
<path d="M181.091 58.6306L173.693 41.7459C140.123 44.6729 168.823 82.1679 123.7 80.0121C148.437 97.0721 151.859 52.7848 181.091 58.6306Z" fill="#201B21"/>
<path d="M188.142 105.222L190.178 86.9011C159.642 72.6511 165.749 119.473 127.749 95.0439C140.642 122.187 165.749 85.5439 188.142 105.222Z" fill="#201B21"/>
<path d="M2.21345 84.4163L0.177734 102.738C30.7134 116.988 24.6063 70.1663 62.6063 94.5949C49.7134 67.452 24.6063 104.095 2.21345 84.4163Z" fill="#201B21"/>
<path d="M20.6234 39.2547L9.69967 54.1037C29.0194 81.7124 47.1412 38.1102 67.8358 78.266C70.2417 48.3132 30.1769 67.4933 20.6234 39.2547Z" fill="#201B21"/>
<path d="M58.8083 8.68543L41.9236 16.0832C44.8506 49.6529 82.3456 20.9532 80.1898 66.0765C97.2498 41.3395 52.9626 37.9175 58.8083 8.68543Z" fill="#201B21"/>
<path d="M102.354 122.187C102.186 124.654 100.414 126.674 97.6865 127.84L101.487 127.903C102.897 127.041 103.314 125.464 103.421 123.894C103.635 120.753 101.61 117.404 99.5727 115.067L98.9941 114.465C95.2093 110.488 89.2124 107.199 85.7077 105.72L85.0398 105.826C89.1276 107.614 95.3838 111.232 98.9928 115.31L99.5114 115.965C101.336 118.117 102.484 120.28 102.354 122.187Z" fill="black"/>
<path d="M86.3564 106.293L86.0954 105.813C84.4339 104.872 82.2304 104.607 80.1736 104.607C73.3724 104.607 70 108.598 70 112.251C70 114.781 71.8548 117.366 75.3959 117.366C80.5108 117.366 85.0636 110.621 86.9747 106.237L98.0475 81.5621H97.4293L89.5602 99.155L81.4101 84.2038C80.3422 82.2366 79.6115 81.5621 77.2508 81.5621H72.9228L86.3564 106.293ZM86.3564 106.35C84.9512 109.891 80.7918 114.5 76.4639 114.5C73.0914 114.5 71.5738 112.645 71.5738 110.734C71.5738 106.518 76.6887 105.169 80.2298 105.169C83.3774 105.169 85.6819 106.125 86.3564 106.35Z" fill="black"/>
<path d="M107.196 81C103.543 81 100.845 82.1241 98.3719 83.698V88.1946C100.114 84.7659 102.419 81.5621 106.466 81.5621C109.613 81.5621 111.243 83.4169 111.243 85.5528C111.243 87.9135 109.501 89.8246 107.534 90.8363C102.644 93.3656 94.7746 93.8153 94.7746 100.054C94.7746 103.539 97.5849 106.237 101.295 106.237C105.51 106.237 109.22 103.764 111.187 102.19C111.187 104.607 112.424 106.237 114.841 106.237C116.527 106.237 118.326 105.506 119 104.607C117.539 105.001 116.808 104.27 116.808 102.359V93.9277H116.471C115.403 97.4688 113.492 100.673 111.187 102.19C107.59 104.663 101.238 103.595 101.238 98.1995C101.182 94.7708 103.993 92.9722 107.253 91.6232C111.637 89.7684 116.864 88.8128 116.864 86.0025C116.864 82.7986 112.03 81 107.196 81Z" fill="black"/>
<path d="M95.2169 86.5083L97.4293 81.5621H93.505C95.7402 83.1413 95.7442 85.3509 95.2169 86.5083Z" fill="black"/>
</svg>
