<svg width="325" height="325" viewBox="0 0 325 325" fill="none" xmlns="http://www.w3.org/2000/svg">
<rect width="325" height="325" fill="#0D061D"/>
<path d="M176.01 53.7064L153.562 51.2122C136.102 88.6258 193.47 81.1431 163.539 127.702C196.795 111.905 151.899 81.1431 176.01 53.7064Z" fill="white"/>
<path d="M231.164 74.6003L212.971 61.2161C179.143 84.8875 232.567 107.091 183.366 132.447C220.065 135.395 196.565 86.3057 231.164 74.6003Z" fill="white"/>
<path d="M268.748 123.049L259.684 102.361C218.553 105.947 253.717 151.888 198.43 149.246C228.739 170.149 232.932 115.886 268.748 123.049Z" fill="white"/>
<path d="M277.388 180.135L279.883 157.687C242.469 140.227 249.952 197.595 203.392 167.664C219.189 200.92 249.952 156.024 277.388 180.135Z" fill="white"/>
<path d="M49.5809 154.643L47.0867 177.091C84.5003 194.55 77.0176 137.183 123.577 167.114C107.78 133.857 77.0176 178.754 49.5809 154.643Z" fill="white"/>
<path d="M72.1379 99.3086L58.7537 117.502C82.4251 151.33 104.629 97.9064 129.985 147.107C132.932 110.407 83.8433 133.908 72.1379 99.3086Z" fill="white"/>
<path d="M118.923 61.8539L98.2353 70.9179C101.822 112.049 147.762 76.8849 145.121 132.172C166.023 101.863 111.761 97.6703 118.923 61.8539Z" fill="white"/>
</svg>
