<svg width="129" height="115" viewBox="0 0 129 115" fill="none" xmlns="http://www.w3.org/2000/svg">
<path d="M2.00061 100.604C7.48276 93.9688 12.1506 86.6491 18.2821 80.6151C19.3123 79.6013 20.057 76.9812 21.418 76.662" stroke="#E7362B" stroke-width="2" stroke-linecap="round" stroke-linejoin="round"/>
<path d="M20.3488 89.0383C20.376 88.6886 22.9686 76.8646 21.8143 76.4512C20.5575 76.001 15.8315 77.1452 14.5246 77.3427C12.7226 77.6151 10.9467 77.2547 9.33008 77.6338" stroke="#E7362B" stroke-width="2" stroke-linecap="round" stroke-linejoin="round"/>
<path d="M61.5851 94.7502C61.701 89.4253 61.1259 84.1237 61.8147 78.8052C61.9304 77.9116 61.253 76.3984 61.8173 75.6867" stroke="#E7362B" stroke-width="2" stroke-linecap="round" stroke-linejoin="round"/>
<path d="M66.264 81.8178C66.1368 81.6458 62.6886 75.1359 61.934 75.4252C61.1125 75.7401 59.1675 78.228 58.5816 78.8614C57.7738 79.7347 56.7242 80.3064 56.054 81.1518" stroke="#E7362B" stroke-width="2" stroke-linecap="round" stroke-linejoin="round"/>
<path d="M61.5851 9.50316C61.701 14.828 61.1259 20.1297 61.8147 25.4481C61.9304 26.3417 61.253 27.8549 61.8173 28.5666" stroke="#E7362B" stroke-width="2" stroke-linecap="round" stroke-linejoin="round"/>
<path d="M66.264 22.4355C66.1368 22.6076 62.6886 29.1174 61.934 28.8281C61.1125 28.5132 59.1675 26.0253 58.5816 25.392C57.7738 24.5186 56.7242 23.947 56.054 23.1016" stroke="#E7362B" stroke-width="2" stroke-linecap="round" stroke-linejoin="round"/>
<path d="M14.7548 8.65306C17.2891 13.8035 19.1895 19.2729 22.2378 24.1337C22.7499 24.9504 22.8292 26.7654 23.6631 27.1823" stroke="#E7362B" stroke-width="2" stroke-linecap="round" stroke-linejoin="round"/>
<path d="M24.8779 18.9867C24.8417 19.2178 24.7009 27.29 23.8881 27.3803C23.0032 27.4786 20.113 26.0075 19.2954 25.6778C18.1681 25.2233 16.9602 25.1833 15.9696 24.688" stroke="#E7362B" stroke-width="2" stroke-linecap="round" stroke-linejoin="round"/>
<path d="M108.648 1C104.618 9.1899 101.596 17.8871 96.7489 25.6164C95.9345 26.915 95.8085 29.8011 94.4824 30.4641" stroke="#E7362B" stroke-width="2" stroke-linecap="round" stroke-linejoin="round"/>
<path d="M92.5518 17.4319C92.6094 17.7994 92.8332 30.6353 94.1257 30.7789C95.5328 30.9352 100.129 28.596 101.429 28.0717C103.221 27.3489 105.142 27.2853 106.717 26.4978" stroke="#E7362B" stroke-width="2" stroke-linecap="round" stroke-linejoin="round"/>
<path d="M127.001 113.467C121.679 102.651 117.688 91.1649 111.286 80.957C110.211 79.242 110.044 75.4304 108.293 74.5548" stroke="#E7362B" stroke-width="2" stroke-linecap="round" stroke-linejoin="round"/>
<path d="M105.742 91.766C105.818 91.2807 106.114 74.3288 107.821 74.1391C109.679 73.9326 115.749 77.022 117.466 77.7144C119.833 78.669 122.37 78.7529 124.45 79.793" stroke="#E7362B" stroke-width="2" stroke-linecap="round" stroke-linejoin="round"/>
</svg>
