<svg width="366" height="106" viewBox="0 0 366 106" fill="none" xmlns="http://www.w3.org/2000/svg">
<path d="M86.8204 15.3042C65.3628 16.2672 33.3574 18.2846 18.1339 27.0423C-3.55183 39.5175 -4.16612 56.0052 13.5377 69.6011C25.4651 78.7608 40.3276 87.775 59.499 93.0773C80.1567 98.7906 99.4918 100.835 122.76 102.684C151.711 104.985 174.304 105.731 203.511 104.192C248.191 101.839 296.515 94.1245 334.181 81.2736C350.168 75.8193 359.434 68.2764 363.545 58.7483C370.277 43.1468 352.823 30.0503 328.117 21.6651C286.393 7.50359 239.289 2.41596 189.786 1.23817C143.645 0.140368 98.2495 2.74549 54.9029 10.9762C46.1523 12.6378 29.2467 15.1032 23.6237 19.4355" stroke="#E7362B" stroke-width="2" stroke-linecap="round" stroke-linejoin="round"/>
</svg>
